<svg width="16" height="13" viewBox="0 0 16 13" fill="none" xmlns="http://www.w3.org/2000/svg">
<g id="WiFi">
<path id="WiFi_2" fill-rule="evenodd" clip-rule="evenodd" d="M7.9996 8.11526C9.04095 8.11526 9.98371 8.56942 10.6661 9.30371L7.9996 12.1729L5.33306 9.30371C6.01549 8.56942 6.95825 8.11526 7.9996 8.11526ZM7.99961 4.05756C10.0823 4.05756 11.9678 4.96589 13.3327 6.43446L11.7328 8.15597C10.7774 7.12797 9.4575 6.49214 7.99961 6.49214C6.54172 6.49214 5.22185 7.12797 4.26645 8.15597L2.66653 6.43446C4.03138 4.96589 5.91691 4.05756 7.99961 4.05756ZM7.71981 0.0036504L7.99962 0L8.3419 0.00546479L8.64217 0.0193044L8.90099 0.0380724L9.2304 0.0712049L9.50446 0.106747L9.80158 0.153568L10.1091 0.211242L10.414 0.277814L10.6789 0.34339L10.9883 0.429273L11.305 0.52777L11.5222 0.601656L11.7597 0.688498L12.0156 0.789243L12.2991 0.909869L12.5784 1.03822L12.8372 1.16587L13.0891 1.29843L13.3373 1.43734L13.5783 1.58048L13.8094 1.7256L14.0575 1.8904L14.3014 2.06185L14.5281 2.23009L14.7337 2.39043L15.0058 2.61458L15.2068 2.78947L15.4084 2.97322L15.6344 3.18985L15.8721 3.43065L16 3.56616L14.3993 5.28685C12.7615 3.52457 10.4989 2.43457 7.99962 2.43457C5.50058 2.43457 3.2381 3.5244 1.6003 5.28645L0 3.56535L0.0181357 3.54588C0.0855508 3.47367 0.153807 3.40236 0.222888 3.33199C0.359332 3.19299 0.498996 3.0576 0.641746 2.92597L0.799292 2.78333L0.993215 2.61478L1.16612 2.47073L1.35692 2.31826L1.55085 2.16997L1.66294 2.08721L1.97476 1.86791L2.20876 1.71342L2.42098 1.58044L2.73318 1.39661L2.98386 1.25875L3.23848 1.12727L3.47645 1.0119L3.75531 0.885656L4.03773 0.767331L4.28821 0.670178L4.61123 0.5554L4.83369 0.483068L5.12485 0.396485L5.41258 0.319737L5.66289 0.259965L5.95145 0.198986L6.24272 0.145908L6.52361 0.102665L6.81516 0.0659174L7.11343 0.0367967L7.44241 0.014507L7.71981 0.0036504Z" fill="white"/>
</g>
</svg>