<svg width="19" height="18" viewBox="0 0 19 18" fill="none" xmlns="http://www.w3.org/2000/svg">
<g id="&#236;&#158;&#165;&#235;&#176;&#148;&#234;&#181;&#172;&#235;&#139;&#136;">
<path id="Vector" d="M15.2 14.4C15.7039 14.4 16.1872 14.5896 16.5435 14.9272C16.8998 15.2648 17.1 15.7226 17.1 16.2C17.1 16.6774 16.8998 17.1352 16.5435 17.4728C16.1872 17.8104 15.7039 18 15.2 18C14.6961 18 14.2128 17.8104 13.8565 17.4728C13.5002 17.1352 13.3 16.6774 13.3 16.2C13.3 15.201 14.1455 14.4 15.2 14.4ZM0 0H3.1065L3.9995 1.8H18.05C18.302 1.8 18.5436 1.89482 18.7218 2.0636C18.8999 2.23239 19 2.46131 19 2.7C19 2.853 18.9525 3.006 18.886 3.15L15.485 8.973C15.162 9.522 14.535 9.9 13.8225 9.9H6.745L5.89 11.367L5.8615 11.475C5.8615 11.5347 5.88652 11.5919 5.93106 11.6341C5.9756 11.6763 6.03601 11.7 6.099 11.7H17.1V13.5H5.7C5.19609 13.5 4.71282 13.3104 4.3565 12.9728C4.00018 12.6352 3.8 12.1774 3.8 11.7C3.8 11.385 3.8855 11.088 4.028 10.836L5.32 8.631L1.9 1.8H0V0ZM5.7 14.4C6.20391 14.4 6.68718 14.5896 7.0435 14.9272C7.39982 15.2648 7.6 15.7226 7.6 16.2C7.6 16.6774 7.39982 17.1352 7.0435 17.4728C6.68718 17.8104 6.20391 18 5.7 18C5.19609 18 4.71282 17.8104 4.3565 17.4728C4.00018 17.1352 3.8 16.6774 3.8 16.2C3.8 15.201 4.6455 14.4 5.7 14.4ZM14.25 8.1L16.891 3.6H4.883L7.125 8.1H14.25Z" fill="#A065FF"/>
</g>
</svg>
