<svg width="20" height="20" viewBox="0 0 20 20" fill="none" xmlns="http://www.w3.org/2000/svg">
<g id="&#234;&#181;&#172;&#234;&#184;&#128;" clip-path="url(#clip0_304_2820)">
<g id="Group 1597880420">
<path id="Vector" d="M18.8 9.20825C18.8 8.55825 18.7417 7.93325 18.6333 7.33325H10V10.8791H14.9333C14.7208 12.0249 14.075 12.9958 13.1042 13.6458V15.9458H16.0667C17.8 14.3499 18.8 11.9999 18.8 9.20825Z" fill="#4285F4"/>
<path id="Vector_2" d="M10 18.1667C12.475 18.1667 14.55 17.3459 16.0667 15.9459L13.1042 13.6459C12.2833 14.1959 11.2333 14.5209 10 14.5209C7.61252 14.5209 5.59168 12.9084 4.87085 10.7417H1.80835V13.1167C3.31668 16.1125 6.41668 18.1667 10 18.1667Z" fill="#34A853"/>
<path id="Vector_3" d="M4.87081 10.7416C4.68748 10.1916 4.58331 9.60413 4.58331 8.99997C4.58331 8.3958 4.68748 7.8083 4.87081 7.2583V4.8833H1.80831C1.16665 6.16068 0.832747 7.57048 0.833314 8.99997C0.833314 10.4791 1.18748 11.8791 1.80831 13.1166L4.87081 10.7416Z" fill="#FBBC05"/>
<path id="Vector_4" d="M10 3.47921C11.3458 3.47921 12.5542 3.94171 13.5042 4.85004L16.1333 2.22087C14.5458 0.741707 12.4708 -0.166626 10 -0.166626C6.41668 -0.166626 3.31668 1.88754 1.80835 4.88337L4.87085 7.25837C5.59168 5.09171 7.61252 3.47921 10 3.47921Z" fill="#EA4335"/>
</g>
</g>
<defs>
<clipPath id="clip0_304_2820">
<rect width="20" height="20" fill="white"/>
</clipPath>
</defs>
</svg>
