<svg width="11" height="10" viewBox="0 0 11 10" fill="none" xmlns="http://www.w3.org/2000/svg">
<path id="Vector" d="M7.75 0.833328C6.88 0.833328 6.045 1.23796 5.5 1.87738C4.955 1.23796 4.12 0.833328 3.25 0.833328C1.71 0.833328 0.5 2.04223 0.5 3.58083C0.5 5.46911 2.2 7.00772 4.775 9.34559L5.5 10L6.225 9.3406C8.8 7.00772 10.5 5.46911 10.5 3.58083C10.5 2.04223 9.29 0.833328 7.75 0.833328ZM5.55 8.60127L5.5 8.65122L5.45 8.60127C3.07 6.44822 1.5 5.02452 1.5 3.58083C1.5 2.58174 2.25 1.83242 3.25 1.83242C4.02 1.83242 4.77 2.32697 5.035 3.01135H5.97C6.23 2.32697 6.98 1.83242 7.75 1.83242C8.75 1.83242 9.5 2.58174 9.5 3.58083C9.5 5.02452 7.93 6.44822 5.55 8.60127Z" fill="#530093"/>
</svg>
