<svg width="29" height="19" viewBox="0 0 29 19" fill="none" xmlns="http://www.w3.org/2000/svg">
<g id="&#235;&#161;&#156;&#234;&#179;&#160;">
<path id="Vector 10" d="M11.6125 17.4532C11.8194 16.9131 11.8379 16.3278 12.0276 15.7841C12.2863 15.0424 12.6452 14.3121 12.9749 13.6007C13.3729 12.7419 13.7088 11.8665 14.2245 11.0677C14.4309 10.7479 14.6126 10.4149 14.7884 10.0775C14.9689 9.73104 15.084 9.32393 15.5192 9.24744C15.9015 9.18024 16.2292 9.39994 16.5004 9.64216C16.8533 9.95748 17.2095 10.2901 17.5312 10.6369C18.272 11.4358 18.7903 12.3438 19.3243 13.2849C19.5435 13.6711 19.7913 14.042 19.9717 14.4488C20.1892 14.9394 20.3726 15.4453 20.6168 15.9239C20.8243 16.3307 21.0222 16.7758 21.316 17.1284" stroke="#B487FF" stroke-width="3" stroke-linecap="round"/>
<path id="Vector 11" d="M11.9374 11.3414C11.9483 12.6924 11.5981 14.1093 10.2984 14.9979C9.57814 15.4903 8.64594 15.708 7.79948 15.7854C6.82417 15.8746 5.87671 15.8299 4.98519 15.5154C4.33437 15.2858 3.77104 14.9242 3.25566 14.5066C2.75486 14.1007 2.27639 13.6508 1.97351 13.091C1.53917 12.2883 1.46667 11.2768 1.65281 10.3565C1.85952 9.33451 2.33778 8.366 3.20963 7.65163C3.96194 7.03521 4.89831 6.3101 5.92443 6.27058C6.26081 6.25762 6.5952 6.1187 6.93034 6.11265C7.30487 6.10589 7.73559 6.01442 8.07588 6.16249C8.42407 6.31399 8.72936 6.47889 9.06162 6.65959C9.43655 6.8635 9.73082 7.22702 10.0287 7.5137C10.321 7.79506 10.6126 8.03327 10.7818 8.40884C10.8742 8.61396 10.9666 8.81908 11.0591 9.02419C11.3425 9.65327 12.2271 11.5247 11.9437 10.8956" stroke="#A065FF" stroke-width="3" stroke-linecap="round"/>
<path id="Vector 12" d="M19.0394 2.20184C18.3487 2.82347 17.8632 3.39393 17.7044 4.3642C17.5763 5.14706 17.5412 5.96513 17.6809 6.7334C17.8258 7.53005 18.3963 8.35188 18.8232 9.02268C19.0631 9.39971 19.2791 9.89386 19.6647 10.1509C19.9678 10.353 20.3684 10.4509 20.6471 10.6633C20.8089 10.7865 21.2555 10.8282 21.4651 10.8325C21.9755 10.8429 22.4869 10.8325 22.9975 10.8325C23.2846 10.8325 23.5757 10.8468 23.8625 10.8325C24.3189 10.8097 24.7018 10.432 25.0894 10.2496C25.885 9.87518 26.6765 9.02295 27.1624 8.29406" stroke="#FFF500" stroke-width="3" stroke-linecap="round"/>
<path id="Vector 13" d="M19.5983 2C19.5888 2.26726 19.5624 2.53628 19.5818 2.80388C19.599 3.04239 19.6934 3.29525 19.7968 3.51073C20.0247 3.98546 20.2847 4.42771 20.6106 4.84282C20.7901 5.07137 20.9353 5.32496 21.1355 5.53753C21.4145 5.83368 21.7264 6.10275 22.0442 6.35575C22.4814 6.70395 22.9312 7.04813 23.4623 7.24124C24.2764 7.53727 25.1177 7.71651 25.9853 7.71651C26.4188 7.71651 26.8449 7.77606 27.2777 7.77606C27.4009 7.77606 27.8715 7.74286 27.8544 7.90507C27.8491 7.95587 27.7955 8.05398 27.7563 8.08482C27.6776 8.14666 27.6305 8.24608 27.5534 8.31198C27.4636 8.38875 27.3472 8.42457 27.2424 8.47518C27.0054 8.58968 26.7514 8.61445 26.497 8.67036C26.2095 8.73354 25.9342 8.80475 25.639 8.82805C25.0357 8.87568 24.4236 8.83921 23.8207 8.8049C23.0921 8.76343 22.3802 8.65142 21.7045 8.36932C21.3628 8.22666 21.0272 8.05846 20.722 7.84773C20.5048 7.69778 20.3728 7.52097 20.2357 7.29968C19.9245 6.79752 19.5398 6.33688 19.2708 5.8099C19.1516 5.57637 19.0577 5.33825 18.9588 5.09644C18.8965 4.94415 18.8242 4.78788 18.8242 4.62007" stroke="#FFF500" stroke-width="2" stroke-linecap="round"/>
<path id="Vector 14" d="M20.0151 8.49066C20.0376 8.72083 20.0831 8.96619 20.1971 9.16994C20.3854 9.5066 20.8158 9.68227 21.1576 9.81172C21.2134 9.83286 21.8913 10.0841 21.8809 9.89332C21.8717 9.72159 21.7841 9.56563 21.6802 9.43239C21.5175 9.2236 21.2236 8.89918 20.9458 8.84794C20.7016 8.80289 21.3224 9.20454 21.5634 9.26477" stroke="#FFF500" stroke-width="2" stroke-linecap="round"/>
</g>
</svg>
