<svg width="16" height="13" viewBox="0 0 16 13" fill="none" xmlns="http://www.w3.org/2000/svg">
<g id="WiFi">
<path id="WiFi_2" fill-rule="evenodd" clip-rule="evenodd" d="M7.9996 8.11523C9.04095 8.11523 9.98371 8.56939 10.6661 9.30368L7.9996 12.1728L5.33306 9.30368C6.01549 8.56939 6.95825 8.11523 7.9996 8.11523ZM7.99961 4.05753C10.0823 4.05753 11.9678 4.96586 13.3327 6.43443L11.7328 8.15594C10.7774 7.12794 9.4575 6.49211 7.99961 6.49211C6.54172 6.49211 5.22185 7.12794 4.26645 8.15594L2.66653 6.43443C4.03138 4.96586 5.91691 4.05753 7.99961 4.05753ZM7.71981 0.00361989L7.99962 -3.05176e-05L8.3419 0.00543427L8.64217 0.0192738L8.90099 0.0380418L9.2304 0.0711744L9.50446 0.106717L9.80158 0.153538L10.1091 0.211211L10.414 0.277784L10.6789 0.34336L10.9883 0.429243L11.305 0.527739L11.5222 0.601625L11.7597 0.688468L12.0156 0.789212L12.2991 0.909838L12.5784 1.03819L12.8372 1.16584L13.0891 1.2984L13.3373 1.43731L13.5783 1.58045L13.8094 1.72557L14.0575 1.89037L14.3014 2.06182L14.5281 2.23006L14.7337 2.39039L15.0058 2.61455L15.2068 2.78944L15.4084 2.97319L15.6344 3.18982L15.8721 3.43062L16 3.56613L14.3993 5.28682C12.7615 3.52454 10.4989 2.43454 7.99962 2.43454C5.50058 2.43454 3.2381 3.52437 1.6003 5.28642L0 3.56532L0.0181357 3.54585C0.0855508 3.47364 0.153807 3.40233 0.222888 3.33196C0.359332 3.19295 0.498996 3.05757 0.641746 2.92594L0.799292 2.7833L0.993215 2.61475L1.16612 2.4707L1.35692 2.31823L1.55085 2.16994L1.66294 2.08718L1.97476 1.86788L2.20876 1.71339L2.42098 1.58041L2.73318 1.39657L2.98386 1.25872L3.23848 1.12724L3.47645 1.01187L3.75531 0.885626L4.03773 0.767301L4.28821 0.670148L4.61123 0.555369L4.83369 0.483037L5.12485 0.396454L5.41258 0.319707L5.66289 0.259935L5.95145 0.198956L6.24272 0.145877L6.52361 0.102634L6.81516 0.0658869L7.11343 0.0367662L7.44241 0.0144765L7.71981 0.00361989Z" fill="black"/>
</g>
</svg>
