<svg width="21" height="20" viewBox="0 0 21 20" fill="none" xmlns="http://www.w3.org/2000/svg">
<path id="Vector" d="M10.9416 0C5.43566 0 0.967041 4.48 0.967041 10C0.967041 15.52 5.43566 20 10.9416 20C16.4476 20 20.9162 15.52 20.9162 10C20.9162 4.48 16.4476 0 10.9416 0ZM10.9416 16.5C10.1137 16.5 9.44544 15.83 9.44544 15H12.4378C12.4378 15.83 11.7695 16.5 10.9416 16.5ZM15.9289 14H5.95433V13L6.95179 12V9.39C6.95179 7.27 7.97918 5.47 9.94417 5V4.5C9.94417 3.93 10.3731 3.5 10.9416 3.5C11.5102 3.5 11.9391 3.93 11.9391 4.5V5C13.9041 5.47 14.9315 7.28 14.9315 9.39V12L15.9289 13V14Z" fill="#CCCCCC"/>
</svg>
