<svg width="17" height="18" viewBox="0 0 17 18" fill="none" xmlns="http://www.w3.org/2000/svg">
<g id="Group 16">
<path id="Ellipse 1" d="M14.7193 7.20924C14.7193 11.1908 11.4243 14.4185 7.35964 14.4185C3.29502 14.4185 0 11.1908 0 7.20924C0 3.22768 3.29502 0 7.35964 0C11.4243 0 14.7193 3.22768 14.7193 7.20924ZM2.23657 7.20924C2.23657 9.9808 4.53025 12.2276 7.35964 12.2276C10.189 12.2276 12.4827 9.9808 12.4827 7.20924C12.4827 4.43767 10.189 2.19087 7.35964 2.19087C4.53025 2.19087 2.23657 4.43767 2.23657 7.20924Z" fill="#A065FF"/>
<rect id="Rectangle 62" width="2.41665" height="7.74821" rx="1.20832" transform="matrix(0.727894 -0.685689 0.700559 0.713594 9.81287 12.4709)" fill="#A065FF"/>
</g>
</svg>
