<svg width="24" height="24" viewBox="0 0 24 24" fill="none" xmlns="http://www.w3.org/2000/svg">
<g id="ic:round-headset-mic">
<path id="Vector" d="M11.4 1.01999C6.62 1.32999 3 5.51999 3 10.31V17C3 18.66 4.34 20 6 20H7C8.1 20 9 19.1 9 18V14C9 12.9 8.1 12 7 12H5V10.29C5 6.44999 7.96 3.10999 11.79 2.99999C12.7268 2.97174 13.6597 3.13192 14.5335 3.47104C15.4072 3.81017 16.2039 4.32132 16.8764 4.97418C17.5488 5.62704 18.0833 6.4083 18.4481 7.27163C18.8129 8.13496 19.0006 9.06276 19 9.99999V12H17C15.9 12 15 12.9 15 14V18C15 19.1 15.9 20 17 20H19V21H13C12.45 21 12 21.45 12 22C12 22.55 12.45 23 13 23H18C19.66 23 21 21.66 21 20V9.99999C21 4.82999 16.64 0.67999 11.4 1.01999Z" fill="black"/>
</g>
</svg>
