<svg width="83" height="91" viewBox="0 0 83 91" fill="none" xmlns="http://www.w3.org/2000/svg">
<circle cx="43" cy="40" r="40" fill="#EEEEEE"/>
<path d="M43 40C49.4459 40 54.6667 34.7791 54.6667 28.3333C54.6667 21.8875 49.4459 16.6666 43 16.6666C36.5542 16.6666 31.3334 21.8875 31.3334 28.3333C31.3334 34.7791 36.5542 40 43 40ZM43 45.8333C35.2125 45.8333 19.6667 49.7416 19.6667 57.5V61.3333C19.6667 62.4379 20.5621 63.3333 21.6667 63.3333H64.3333C65.4379 63.3333 66.3334 62.4379 66.3334 61.3333V57.5C66.3334 49.7416 50.7875 45.8333 43 45.8333Z" fill="white"/>
<path d="M81.1798 52.3607C78.5695 60.3944 73.4828 67.3955 66.6489 72.3607C59.815 77.3258 51.5847 80 43.1375 80C34.6903 80 26.46 77.3258 19.6261 72.3607C12.7922 67.3955 7.70557 60.3944 5.09526 52.3606L42.758 52.4942L81.1798 52.3607Z" fill="#B8B6B6" fill-opacity="0.76"/>
<path d="M47.5 56.4348H45.7675L44.9156 55.2128C44.87 55.1474 44.8082 55.0937 44.7357 55.0566C44.6632 55.0195 44.5822 55 44.5 55H40.5C40.4178 55 40.3368 55.0195 40.2643 55.0566C40.1918 55.0937 40.13 55.1474 40.0844 55.2128L39.2319 56.4348H37.5C37.1022 56.4348 36.7206 56.5859 36.4393 56.855C36.158 57.1241 36 57.489 36 57.8696V64.5652C36 64.9457 36.158 65.3107 36.4393 65.5798C36.7206 65.8488 37.1022 66 37.5 66H47.5C47.8978 66 48.2794 65.8488 48.5607 65.5798C48.842 65.3107 49 64.9457 49 64.5652V57.8696C49 57.489 48.842 57.1241 48.5607 56.855C48.2794 56.5859 47.8978 56.4348 47.5 56.4348ZM48 64.5652C48 64.6921 47.9473 64.8137 47.8536 64.9034C47.7598 64.9931 47.6326 65.0435 47.5 65.0435H37.5C37.3674 65.0435 37.2402 64.9931 37.1464 64.9034C37.0527 64.8137 37 64.6921 37 64.5652V57.8696C37 57.7427 37.0527 57.6211 37.1464 57.5314C37.2402 57.4417 37.3674 57.3913 37.5 57.3913H39.5C39.5823 57.3914 39.6634 57.372 39.736 57.3348C39.8086 57.2977 39.8706 57.244 39.9163 57.1785L40.7675 55.9565H44.2319L45.0837 57.1785C45.1294 57.244 45.1914 57.2977 45.264 57.3348C45.3366 57.372 45.4177 57.3914 45.5 57.3913H47.5C47.6326 57.3913 47.7598 57.4417 47.8536 57.5314C47.9473 57.6211 48 57.7427 48 57.8696V64.5652ZM42.5 58.3478C41.9561 58.3478 41.4244 58.5021 40.9722 58.7911C40.5199 59.0802 40.1675 59.491 39.9593 59.9716C39.7512 60.4523 39.6967 60.9812 39.8028 61.4914C39.909 62.0017 40.1709 62.4704 40.5555 62.8383C40.9401 63.2061 41.4301 63.4567 41.9635 63.5582C42.4969 63.6596 43.0499 63.6076 43.5524 63.4085C44.0549 63.2094 44.4844 62.8722 44.7865 62.4397C45.0887 62.0071 45.25 61.4985 45.25 60.9783C45.2492 60.2809 44.9592 59.6123 44.4436 59.1191C43.9281 58.626 43.2291 58.3486 42.5 58.3478ZM42.5 62.6522C42.1539 62.6522 41.8155 62.554 41.5278 62.3701C41.24 62.1861 41.0157 61.9247 40.8832 61.6188C40.7508 61.313 40.7161 60.9764 40.7836 60.6517C40.8512 60.327 41.0178 60.0287 41.2626 59.7946C41.5073 59.5605 41.8191 59.4011 42.1586 59.3365C42.4981 59.2719 42.8499 59.3051 43.1697 59.4318C43.4895 59.5585 43.7628 59.773 43.9551 60.0483C44.1474 60.3236 44.25 60.6472 44.25 60.9783C44.25 61.4222 44.0656 61.848 43.7374 62.1619C43.4092 62.4758 42.9641 62.6522 42.5 62.6522Z" fill="white"/>
</svg>
